<mxfile host="app.diagrams.net" modified="2021-09-05T09:45:59.109Z" agent="5.0 (Windows NT 10.0; Win64; x64) AppleWebKit/537.36 (KHTML, like Gecko) Chrome/92.0.4515.159 Safari/537.36" etag="811aLhb_cFV-fPf0gYdJ" version="14.5.10" type="github">
  <diagram id="0sRjQgaDrc2o40Nj4_sH" name="第 1 页">
    <mxGraphModel dx="2249" dy="762" grid="1" gridSize="10" guides="1" tooltips="1" connect="1" arrows="1" fold="1" page="1" pageScale="1" pageWidth="827" pageHeight="1169" math="0" shadow="0">
      <root>
        <mxCell id="0" />
        <mxCell id="1" parent="0" />
        <mxCell id="OUwV-Nu_esIcNdKCQ8UF-1" value="贷前" style="rounded=0;whiteSpace=wrap;html=1;fillColor=#dae8fc;strokeColor=#6c8ebf;" vertex="1" parent="1">
          <mxGeometry x="-720" y="160" width="590" height="40" as="geometry" />
        </mxCell>
        <mxCell id="OUwV-Nu_esIcNdKCQ8UF-2" value="贷中" style="rounded=0;whiteSpace=wrap;html=1;fillColor=#dae8fc;strokeColor=#6c8ebf;" vertex="1" parent="1">
          <mxGeometry x="-50" y="160" width="500" height="40" as="geometry" />
        </mxCell>
        <mxCell id="OUwV-Nu_esIcNdKCQ8UF-3" value="贷后" style="rounded=0;whiteSpace=wrap;html=1;fillColor=#dae8fc;strokeColor=#6c8ebf;" vertex="1" parent="1">
          <mxGeometry x="500" y="160" width="620" height="40" as="geometry" />
        </mxCell>
        <mxCell id="OUwV-Nu_esIcNdKCQ8UF-5" value="客户申请贷款" style="rounded=1;whiteSpace=wrap;html=1;fillColor=#0050ef;strokeColor=#001DBC;fontColor=#ffffff;" vertex="1" parent="1">
          <mxGeometry x="-630" y="350" width="120" height="60" as="geometry" />
        </mxCell>
        <mxCell id="OUwV-Nu_esIcNdKCQ8UF-6" value="提交贷款资料" style="rounded=1;whiteSpace=wrap;html=1;fillColor=#0050ef;strokeColor=#001DBC;fontColor=#ffffff;" vertex="1" parent="1">
          <mxGeometry x="-420" y="350" width="120" height="60" as="geometry" />
        </mxCell>
        <mxCell id="OUwV-Nu_esIcNdKCQ8UF-7" value="" style="endArrow=classic;html=1;exitX=1;exitY=0.5;exitDx=0;exitDy=0;entryX=0;entryY=0.5;entryDx=0;entryDy=0;fillColor=#6a00ff;strokeColor=#3700CC;" edge="1" parent="1" source="OUwV-Nu_esIcNdKCQ8UF-5" target="OUwV-Nu_esIcNdKCQ8UF-6">
          <mxGeometry width="50" height="50" relative="1" as="geometry">
            <mxPoint x="-490" y="420" as="sourcePoint" />
            <mxPoint x="-440" y="370" as="targetPoint" />
          </mxGeometry>
        </mxCell>
        <mxCell id="OUwV-Nu_esIcNdKCQ8UF-8" value="风控系统自动审核" style="rounded=1;whiteSpace=wrap;html=1;fillColor=#0050ef;strokeColor=#001DBC;fontColor=#ffffff;" vertex="1" parent="1">
          <mxGeometry x="-230" y="350" width="120" height="60" as="geometry" />
        </mxCell>
        <mxCell id="OUwV-Nu_esIcNdKCQ8UF-9" value="" style="endArrow=classic;html=1;exitX=1;exitY=0.5;exitDx=0;exitDy=0;entryX=0;entryY=0.5;entryDx=0;entryDy=0;fillColor=#6a00ff;strokeColor=#3700CC;" edge="1" parent="1" source="OUwV-Nu_esIcNdKCQ8UF-6" target="OUwV-Nu_esIcNdKCQ8UF-8">
          <mxGeometry width="50" height="50" relative="1" as="geometry">
            <mxPoint x="-500" y="360" as="sourcePoint" />
            <mxPoint x="-410" y="360" as="targetPoint" />
          </mxGeometry>
        </mxCell>
        <mxCell id="OUwV-Nu_esIcNdKCQ8UF-10" value="通知授信额度/利率/期限" style="rounded=1;whiteSpace=wrap;html=1;fillColor=#d80073;strokeColor=#A50040;fontColor=#ffffff;" vertex="1" parent="1">
          <mxGeometry x="-20" y="350" width="120" height="60" as="geometry" />
        </mxCell>
        <mxCell id="OUwV-Nu_esIcNdKCQ8UF-11" value="人工审核" style="rounded=0;whiteSpace=wrap;html=1;fillColor=#0050ef;strokeColor=#001DBC;fontColor=#ffffff;" vertex="1" parent="1">
          <mxGeometry x="-160" y="220" width="120" height="60" as="geometry" />
        </mxCell>
        <mxCell id="OUwV-Nu_esIcNdKCQ8UF-12" value="" style="endArrow=classic;html=1;exitX=0.5;exitY=0;exitDx=0;exitDy=0;entryX=0.5;entryY=1;entryDx=0;entryDy=0;fillColor=#0050ef;strokeColor=#001DBC;" edge="1" parent="1" source="OUwV-Nu_esIcNdKCQ8UF-8" target="OUwV-Nu_esIcNdKCQ8UF-11">
          <mxGeometry width="50" height="50" relative="1" as="geometry">
            <mxPoint x="-160" y="410" as="sourcePoint" />
            <mxPoint x="-110" y="360" as="targetPoint" />
          </mxGeometry>
        </mxCell>
        <mxCell id="OUwV-Nu_esIcNdKCQ8UF-13" value="" style="endArrow=classic;html=1;exitX=1;exitY=0.5;exitDx=0;exitDy=0;entryX=0.5;entryY=0;entryDx=0;entryDy=0;fillColor=#0050ef;strokeColor=#001DBC;" edge="1" parent="1" source="OUwV-Nu_esIcNdKCQ8UF-11" target="OUwV-Nu_esIcNdKCQ8UF-10">
          <mxGeometry width="50" height="50" relative="1" as="geometry">
            <mxPoint x="-160" y="360" as="sourcePoint" />
            <mxPoint x="-90" y="290" as="targetPoint" />
          </mxGeometry>
        </mxCell>
        <mxCell id="OUwV-Nu_esIcNdKCQ8UF-14" value="" style="endArrow=classic;html=1;entryX=0;entryY=0.5;entryDx=0;entryDy=0;exitX=1;exitY=0.5;exitDx=0;exitDy=0;fillColor=#d80073;strokeColor=#A50040;" edge="1" parent="1" source="OUwV-Nu_esIcNdKCQ8UF-8" target="OUwV-Nu_esIcNdKCQ8UF-10">
          <mxGeometry width="50" height="50" relative="1" as="geometry">
            <mxPoint x="-160" y="410" as="sourcePoint" />
            <mxPoint x="-110" y="360" as="targetPoint" />
          </mxGeometry>
        </mxCell>
        <mxCell id="OUwV-Nu_esIcNdKCQ8UF-15" value="客户绑卡申请支用" style="rounded=1;whiteSpace=wrap;html=1;fillColor=#d80073;strokeColor=#A50040;fontColor=#ffffff;" vertex="1" parent="1">
          <mxGeometry x="160" y="350" width="120" height="60" as="geometry" />
        </mxCell>
        <mxCell id="OUwV-Nu_esIcNdKCQ8UF-16" value="" style="endArrow=classic;html=1;entryX=0;entryY=0.5;entryDx=0;entryDy=0;exitX=1;exitY=0.5;exitDx=0;exitDy=0;fillColor=#d80073;strokeColor=#A50040;" edge="1" parent="1" source="OUwV-Nu_esIcNdKCQ8UF-10" target="OUwV-Nu_esIcNdKCQ8UF-15">
          <mxGeometry width="50" height="50" relative="1" as="geometry">
            <mxPoint x="-100" y="390" as="sourcePoint" />
            <mxPoint x="-10" y="390" as="targetPoint" />
          </mxGeometry>
        </mxCell>
        <mxCell id="OUwV-Nu_esIcNdKCQ8UF-17" value="系统自动扣款&lt;br&gt;客户手动还款" style="rounded=1;whiteSpace=wrap;html=1;fillColor=#d80073;strokeColor=#A50040;fontColor=#ffffff;" vertex="1" parent="1">
          <mxGeometry x="340" y="350" width="120" height="60" as="geometry" />
        </mxCell>
        <mxCell id="OUwV-Nu_esIcNdKCQ8UF-18" value="" style="endArrow=classic;html=1;entryX=0;entryY=0.5;entryDx=0;entryDy=0;exitX=1;exitY=0.5;exitDx=0;exitDy=0;fillColor=#d80073;strokeColor=#A50040;" edge="1" parent="1" source="OUwV-Nu_esIcNdKCQ8UF-15" target="OUwV-Nu_esIcNdKCQ8UF-17">
          <mxGeometry width="50" height="50" relative="1" as="geometry">
            <mxPoint x="110" y="390" as="sourcePoint" />
            <mxPoint x="170" y="390" as="targetPoint" />
          </mxGeometry>
        </mxCell>
        <mxCell id="OUwV-Nu_esIcNdKCQ8UF-19" value="贷后管理" style="rounded=1;whiteSpace=wrap;html=1;fillColor=#a20025;strokeColor=#6F0000;fontColor=#ffffff;" vertex="1" parent="1">
          <mxGeometry x="590" y="350" width="120" height="60" as="geometry" />
        </mxCell>
        <mxCell id="OUwV-Nu_esIcNdKCQ8UF-20" value="" style="endArrow=classic;html=1;entryX=0;entryY=0.5;entryDx=0;entryDy=0;exitX=1;exitY=0.5;exitDx=0;exitDy=0;fillColor=#a20025;strokeColor=#6F0000;" edge="1" parent="1" source="OUwV-Nu_esIcNdKCQ8UF-17" target="OUwV-Nu_esIcNdKCQ8UF-19">
          <mxGeometry width="50" height="50" relative="1" as="geometry">
            <mxPoint x="210" y="400" as="sourcePoint" />
            <mxPoint x="260" y="350" as="targetPoint" />
          </mxGeometry>
        </mxCell>
        <mxCell id="OUwV-Nu_esIcNdKCQ8UF-21" value="回款结清管理" style="rounded=1;whiteSpace=wrap;html=1;fillColor=#a20025;strokeColor=#6F0000;fontColor=#ffffff;" vertex="1" parent="1">
          <mxGeometry x="840" y="350" width="120" height="60" as="geometry" />
        </mxCell>
        <mxCell id="OUwV-Nu_esIcNdKCQ8UF-22" value="" style="endArrow=classic;html=1;entryX=0;entryY=0.5;entryDx=0;entryDy=0;exitX=1;exitY=0.5;exitDx=0;exitDy=0;fillColor=#a20025;strokeColor=#6F0000;" edge="1" parent="1" source="OUwV-Nu_esIcNdKCQ8UF-19" target="OUwV-Nu_esIcNdKCQ8UF-21">
          <mxGeometry width="50" height="50" relative="1" as="geometry">
            <mxPoint x="470" y="390" as="sourcePoint" />
            <mxPoint x="600" y="390" as="targetPoint" />
          </mxGeometry>
        </mxCell>
        <mxCell id="OUwV-Nu_esIcNdKCQ8UF-23" value="1. 线上获取贷款产品信息.&lt;br&gt;2. 注册申请贷款账号.&lt;br&gt;3. 登录申请贷款账号&lt;br&gt;&lt;br&gt;&lt;br&gt;&lt;br&gt;&lt;br&gt;&lt;br&gt;&lt;br&gt;&lt;br&gt;&lt;br&gt;&lt;br&gt;&lt;br&gt;&lt;br&gt;&lt;br&gt;&lt;br&gt;&lt;br&gt;&lt;br&gt;&lt;br&gt;&lt;br&gt;&lt;br&gt;&amp;nbsp; &amp;nbsp;App/公众号/快程序/小程序/H5/单应用" style="rounded=0;whiteSpace=wrap;html=1;align=left;verticalAlign=top;fillColor=#6d8764;strokeColor=#3A5431;fontColor=#ffffff;" vertex="1" parent="1">
          <mxGeometry x="-630" y="440" width="120" height="400" as="geometry" />
        </mxCell>
        <mxCell id="OUwV-Nu_esIcNdKCQ8UF-24" value="1. 贷款需求&lt;br&gt;2. 身份基本信息&lt;br&gt;3.学历&lt;br&gt;4. 居住地址&lt;br&gt;5. 职业信息&lt;br&gt;6.公司名称/地址/&lt;br&gt;7. 联系人姓名/关系/手机号&lt;br&gt;8. 真实身份核算&lt;br&gt;9. 签订贷款合同&lt;br&gt;&lt;br&gt;&lt;br&gt;&lt;br&gt;&lt;br&gt;&lt;br&gt;&lt;br&gt;&lt;br&gt;&lt;br&gt;&lt;br&gt;&lt;br&gt;&lt;br&gt;&lt;br&gt;&lt;br&gt;&amp;nbsp; &amp;nbsp;App/公众号/快程序/小程序/H5/单应用" style="rounded=0;whiteSpace=wrap;html=1;align=left;verticalAlign=top;fillColor=#6d8764;strokeColor=#3A5431;fontColor=#ffffff;" vertex="1" parent="1">
          <mxGeometry x="-430" y="430" width="120" height="400" as="geometry" />
        </mxCell>
      </root>
    </mxGraphModel>
  </diagram>
</mxfile>
